<svg xmlns="http://www.w3.org/2000/svg" width="20" height="21" viewBox="0 0 20 21">
    <g fill="#8F8D96" fill-rule="nonzero">
        <path d="M19.705 15.223l-.525-.1a.703.703 0 0 1-.532-.443.702.702 0 0 1 .09-.685l.329-.45a.363.363 0 0 0-.036-.472l-.713-.712a.365.365 0 0 0-.46-.044l-.443.3a.703.703 0 0 1-.69.063.704.704 0 0 1-.421-.548l-.085-.551a.363.363 0 0 0-.359-.308h-1.007a.364.364 0 0 0-.357.295l-.13.678a.705.705 0 0 1-.43.527.703.703 0 0 1-.676-.069l-.572-.387a.365.365 0 0 0-.461.044l-.712.712a.363.363 0 0 0-.037.472l.33.45a.702.702 0 0 1 .09.685.703.703 0 0 1-.533.443l-.525.1a.364.364 0 0 0-.295.357v1.008c0 .179.131.332.309.359l.55.085a.704.704 0 0 1 .55.421c.1.23.076.482-.065.69l-.3.442a.364.364 0 0 0 .045.461l.712.713a.365.365 0 0 0 .472.036l.45-.33a.703.703 0 0 1 .685-.089.703.703 0 0 1 .442.532l.101.525c.033.17.183.294.357.294h1.007c.18 0 .332-.13.36-.308l.06-.387c.037-.25.2-.457.433-.554a.712.712 0 0 1 .699.085l.316.232c.145.106.345.09.472-.037l.712-.712a.364.364 0 0 0 .044-.461l-.3-.443a.705.705 0 0 1-.063-.689c.1-.23.3-.384.548-.422l.551-.084a.364.364 0 0 0 .308-.36V15.58a.364.364 0 0 0-.295-.357zm-.432 1.053l-.243.037a1.436 1.436 0 0 0-1.104.85c-.2.457-.151.975.128 1.387l.131.194-.279.28-.064-.048c-.411-.3-.937-.364-1.407-.17-.47.195-.797.612-.875 1.115l-.012.079h-.395l-.044-.23a1.437 1.437 0 0 0-.89-1.072 1.441 1.441 0 0 0-1.382.18l-.198.145-.279-.28.131-.193c.28-.413.327-.931.128-1.387a1.437 1.437 0 0 0-1.104-.85l-.242-.037v-.395l.23-.044c.49-.094.89-.428 1.072-.89.181-.464.114-.98-.18-1.383l-.145-.197.28-.28.322.22a1.44 1.44 0 0 0 1.363.138c.45-.187.773-.584.865-1.062l.073-.383h.395l.038.243c.075.492.393.905.85 1.104.456.198.975.15 1.387-.128l.194-.132.279.28-.145.197a1.437 1.437 0 0 0-.18 1.382c.182.463.583.797 1.072.89l.23.045v.395z"/>
        <path d="M15.273 14.182A1.82 1.82 0 0 0 13.455 16a1.82 1.82 0 0 0 1.818 1.818A1.82 1.82 0 0 0 17.09 16a1.82 1.82 0 0 0-1.818-1.818zm0 2.909c-.602 0-1.091-.49-1.091-1.091s.49-1.09 1.09-1.09c.602 0 1.092.489 1.092 1.09 0 .601-.49 1.09-1.091 1.09zM9.09 14.91c-.3 0-.594-.007-.883-.017-.177-.006-.348-.018-.52-.028-.107-.006-.216-.01-.321-.018a20.66 20.66 0 0 1-.672-.06c-.041-.005-.085-.008-.126-.012-.252-.028-.497-.06-.736-.094l-.019-.003c-1.23-.182-2.287-.46-3.113-.789l-.013-.005a7.727 7.727 0 0 1-.431-.188l-.048-.023a5.785 5.785 0 0 1-.344-.18l-.077-.044a4.198 4.198 0 0 1-.262-.169 2.994 2.994 0 0 1-.285-.22c-.032-.029-.065-.057-.095-.086a1.971 1.971 0 0 1-.211-.243 1.287 1.287 0 0 1-.136-.242.89.89 0 0 1-.042-.132c-.014-.058-.029-.117-.029-.175V9.197c.01.01.023.019.034.028.08.07.16.14.25.206 1.37 1.037 4.11 1.842 8.08 1.842 3.954 0 6.686-.799 8.061-1.829.11-.08.21-.162.302-.246v1.347a.363.363 0 1 0 .728 0V3.273a.356.356 0 0 0-.053-.178C17.708 1.535 14.573 0 9.09 0 3.608 0 .474 1.535.053 3.095A.356.356 0 0 0 0 3.273V16.727c0 .059.015.114.042.163.414 1.758 3.887 2.793 7.203 3.042h.028a.363.363 0 0 0 .027-.725C3.259 18.903.903 17.673.739 16.668a.35.35 0 0 0-.012-.047v-3.06c.01.01.023.019.034.028.08.07.16.139.25.206 1.37 1.036 4.11 1.841 8.08 1.841a.363.363 0 1 0 0-.727zM.947 5.016c.109.086.227.17.354.253l.084.051a6.222 6.222 0 0 0 .473.266c.133.068.272.133.419.197l.07.032c.17.072.351.141.54.208l.16.054c.15.05.305.099.465.146.058.016.114.034.174.05.212.06.432.115.663.167l.097.02a15.92 15.92 0 0 0 .854.162c.206.033.419.065.637.093l.166.023c.27.032.55.06.838.084l.217.016c.23.016.465.03.706.041.088.004.175.008.264.01.314.011.633.02.964.02.33 0 .65-.009.964-.02.089-.002.176-.006.264-.01.24-.01.476-.025.706-.041l.217-.016c.287-.023.567-.052.838-.084l.166-.023a19.601 19.601 0 0 0 1.49-.255l.098-.02c.23-.052.45-.108.663-.167.06-.016.116-.033.174-.05.16-.047.315-.096.465-.146l.16-.054c.188-.067.37-.136.54-.208.025-.01.047-.022.07-.032a7.773 7.773 0 0 0 .553-.267c.118-.064.232-.129.338-.196l.084-.05c.128-.083.246-.168.355-.254l.078-.065c.047-.04.097-.079.14-.118v2.984c0 .059-.014.118-.028.177a.877.877 0 0 1-.094.24 1.287 1.287 0 0 1-.164.234c-.04.048-.083.095-.132.143-.03.028-.061.057-.094.085-.06.052-.122.104-.191.155-.03.023-.062.044-.094.066a4.198 4.198 0 0 1-.262.168l-.077.044a6.119 6.119 0 0 1-.344.18l-.048.023a7.846 7.846 0 0 1-.431.189l-.013.005c-.826.33-1.882.607-3.113.789a19.255 19.255 0 0 1-.755.097l-.126.011c-.22.023-.443.044-.672.06-.105.008-.215.012-.321.019-.172.01-.343.021-.52.028a25.097 25.097 0 0 1-1.769-.001c-.176-.007-.347-.018-.52-.029-.106-.006-.215-.01-.32-.017a20.66 20.66 0 0 1-.672-.061c-.041-.004-.085-.007-.126-.012-.252-.027-.497-.059-.736-.094l-.019-.002c-1.23-.182-2.287-.46-3.113-.79a7.727 7.727 0 0 1-.444-.194c-.016-.007-.033-.014-.048-.022a5.785 5.785 0 0 1-.344-.18l-.077-.044a4.198 4.198 0 0 1-.262-.168L1.43 8.85a2.994 2.994 0 0 1-.191-.155l-.095-.085a1.971 1.971 0 0 1-.211-.244 1.287 1.287 0 0 1-.136-.242.89.89 0 0 1-.042-.132c-.014-.057-.029-.116-.029-.175V4.834c.044.04.094.078.141.118.026.021.05.043.078.065zM9.09.727c4.929 0 8.364 1.437 8.364 2.728 0 1.29-3.435 2.727-8.364 2.727-4.93 0-8.364-1.437-8.364-2.727 0-1.29 3.435-2.728 8.364-2.728z"/>
    </g>
</svg>
