<svg xmlns="http://www.w3.org/2000/svg" width="16" height="18" viewBox="0 0 16 18">
    <path fill="#614AE2" fill-rule="nonzero" stroke="#F6F5FF" stroke-width=".5" d="M14.222 4.2h-3.11v-.8c0-1.325-1.046-2.4-2.334-2.4H7.222C5.934 1 4.89 2.075 4.89 3.4v.8H1.778A.79.79 0 0 0 1 5c0 .442.348.8.778.8h.778v8.8c0 1.325 1.044 2.4 2.333 2.4h6.222c1.289 0 2.333-1.075 2.333-2.4V5.8h.778A.79.79 0 0 0 15 5a.79.79 0 0 0-.778-.8zm-7.778-.8c0-.442.349-.8.778-.8h1.556a.79.79 0 0 1 .778.8v.8H6.444v-.8zm5.445 11.2a.79.79 0 0 1-.778.8H4.89a.79.79 0 0 1-.778-.8V5.8h7.778v8.8z"/>
</svg>
