<svg xmlns="http://www.w3.org/2000/svg" width="20" height="20" viewBox="0 0 20 20">
    <path fill="#8F8D96" fill-rule="nonzero" d="M17.818 0A2.184 2.184 0 0 0 15.9 3.222l-3.574 3.574a2.888 2.888 0 0 0-3.562 0l-2.788-2.79c.128-.215.206-.464.206-.733a1.456 1.456 0 0 0-2.91 0c0 .802.653 1.454 1.455 1.454.27 0 .518-.078.734-.206l2.79 2.789a2.892 2.892 0 0 0 0 3.562l-4.606 4.605a2.171 2.171 0 0 0-1.463-.568A2.184 2.184 0 0 0 0 17.091c0 1.203.979 2.182 2.182 2.182A2.184 2.184 0 0 0 4.1 16.05l4.665-4.665c.402.313.887.522 1.417.589v3.694a2.183 2.183 0 0 0-1.818 2.15c0 1.202.979 2.181 2.182 2.181a2.184 2.184 0 0 0 2.182-2.182 2.184 2.184 0 0 0-1.819-2.149v-3.694a2.892 2.892 0 0 0 1.418-.59l2.789 2.79a1.434 1.434 0 0 0-.207.734 1.456 1.456 0 0 0 2.91 0c0-.802-.653-1.454-1.455-1.454-.27 0-.518.078-.735.206l-2.788-2.789a2.892 2.892 0 0 0 0-3.562l3.514-3.514c.388.351.9.568 1.463.568A2.184 2.184 0 0 0 20 2.182 2.184 2.184 0 0 0 17.818 0zM4 3.273a.728.728 0 1 1 1.456.001A.728.728 0 0 1 4 3.273zM2.182 18.545a1.456 1.456 0 0 1-1.455-1.454 1.456 1.456 0 0 1 2.91 0c0 .802-.653 1.454-1.455 1.454zM12 17.818a1.456 1.456 0 0 1-2.91 0 1.456 1.456 0 0 1 2.91 0zm-1.455-6.545A2.184 2.184 0 0 1 8.364 9.09c0-1.203.978-2.182 2.181-2.182 1.204 0 2.182.979 2.182 2.182a2.184 2.184 0 0 1-2.182 2.182zm6.546 3.636a.728.728 0 1 1-1.456-.001.728.728 0 0 1 1.456.001zm.727-11.273a1.456 1.456 0 0 1-1.454-1.454c0-.802.652-1.455 1.454-1.455a1.456 1.456 0 0 1 0 2.91z"/>
</svg>
