<?xml version="1.0" encoding="iso-8859-1"?>
<!-- Generator: Adobe Illustrator 16.0.0, SVG Export Plug-In . SVG Version: 6.00 Build 0)  -->
<!DOCTYPE svg PUBLIC "-//W3C//DTD SVG 1.1//EN" "http://www.w3.org/Graphics/SVG/1.1/DTD/svg11.dtd">
<svg version="1.1" id="Capa_1" xmlns="http://www.w3.org/2000/svg" xmlns:xlink="http://www.w3.org/1999/xlink" x="0px" y="0px"
	 fill="#8f8d96" height="20px" width="20px" viewBox="0 0 498.226 498.226" style="enable-background:new 0 0 498.226 498.226;"
	 xml:space="preserve">
<g>
	<g>
		<path d="M48,362.77H15c-8.284,0-15,6.716-15,15s6.716,15,15,15h33c8.284,0,15-6.716,15-15S56.284,362.77,48,362.77z"/>
		<path d="M160,362.77h-56c-8.284,0-15,6.716-15,15s6.716,15,15,15h56c8.284,0,15-6.716,15-15S168.284,362.77,160,362.77z"/>
		<path d="M272,362.77h-56c-8.284,0-15,6.716-15,15s6.716,15,15,15h56c8.283,0,15-6.716,15-15S280.283,362.77,272,362.77z"/>
		<path d="M384,362.77h-56c-8.285,0-15,6.716-15,15s6.715,15,15,15h56c8.283,0,15-6.716,15-15S392.283,362.77,384,362.77z"/>
		<path d="M473,362.77h-33c-8.285,0-15,6.716-15,15s6.715,15,15,15h33c8.283,0,15-6.716,15-15S481.283,362.77,473,362.77z"/>
		<path d="M498.018,269.898c-0.83-8.449-4.072-16.648-9.375-23.713c-3.037-4.043-6.693-7.655-10.861-10.73
			c-11.111-8.204-25.434-12.481-40.318-12.03c-0.035,0-0.076,0.001-0.109,0.006l-3.316,0.191
			c-8.125,0.623-16.293,2.757-23.631,6.172c-0.031,0.014-0.059,0.029-0.098,0.047c-2.541,1.268-3.348,1.706-3.656,1.886
			c-22.951,12.417-39.941,17.467-51.41,19.364c5.018-10.484,14.604-25.395,32.92-43.979c0.26-0.248,0.902-0.905,2.832-2.991
			c0.021-0.026,0.049-0.05,0.066-0.08c5.324-6.092,9.65-13.348,12.539-21.046l1.08-3.06c0.018-0.036,0.027-0.069,0.035-0.104
			c6.344-19.624,3.408-40.967-7.66-55.702c-0.004-0.005-0.004-0.005-0.004-0.005c-3.711-4.938-8.256-9.029-13.518-12.161
			c-9.08-5.392-19.957-7.54-30.635-6.041c-9.844,1.376-19.463,5.675-27.801,12.426c-4.797,3.886-9.078,8.524-12.693,13.728
			c-4.875,7.513-7.195,12.85-8.467,16.531c-7.058,20.049-4.478,42.221,6.883,57.341c1.93,2.569,4.119,4.956,6.51,7.091
			c1.332,1.195,2.729,2.311,4.176,3.328l-16.455,38.166l-125.055,22.056c-0.451,0.065-0.906,0.131-1.361,0.194
			c-2.822,0.41-5.75,0.831-8.705,1.957c-10.935,4.161-17.211,14.049-20.543,21.606c-1.619,3.674-2.673,6.762-3.3,9.71l-1.657,7.562
			c-0.27,1.225,0.075,2.486,0.914,3.415c0.843,0.922,2.077,1.374,3.314,1.222l136.215-17.099l-19.999,48.164h48.378l26.133-55.168
			l39.801-4.988c1.59,4.652,3.902,9.008,6.898,12.994c10.838,14.43,30.105,23.193,50.291,22.874
			c23.186-0.369,44.266-11.931,55.008-30.171C496.621,289.97,498.973,279.687,498.018,269.898z M339.713,191.282
			c-1.57-1.064-2.963-2.396-4.137-3.959c-4.971-6.613-5.303-16.15-3.965-22.867c1.875-9.369,7.051-17.786,14.193-23.081
			c6.604-4.896,14.105-6.282,20.062-3.705l0.004,0.001c0.006,0,0.01,0.001,0.018,0.004c2.551,1.104,4.732,2.84,6.475,5.151
			c3.762,5.014,5.443,12.98,4.381,20.792c-1.406,10.337-6.998,19.907-14.961,25.601C356.15,193.244,346.998,196.197,339.713,191.282
			z M467.166,276.095c-0.367,3.5-1.936,7.018-4.525,10.171c-5.666,6.898-15.287,11.293-25.742,11.752
			c-8.484,0.373-19.736-2.146-25.877-10.317c-0.221-0.294-0.428-0.592-0.631-0.895c-4.033-6.01-3.418-13.96,1.559-20.264
			c4.887-6.197,13-10.489,22.26-11.778l1.068-0.136c8.68-0.958,20.498,0.884,27.666,8.941c0.334,0.372,0.646,0.762,0.947,1.158
			C466.422,268.1,467.586,272.137,467.166,276.095z"/>
	</g>
</g>
<g>
</g>
<g>
</g>
<g>
</g>
<g>
</g>
<g>
</g>
<g>
</g>
<g>
</g>
<g>
</g>
<g>
</g>
<g>
</g>
<g>
</g>
<g>
</g>
<g>
</g>
<g>
</g>
<g>
</g>
</svg>
