<svg xmlns="http://www.w3.org/2000/svg" width="20" height="20" viewBox="0 0 20 20">
    <path fill="#8F8D96" fill-rule="nonzero" d="M5.994 20.012a5.958 5.958 0 0 0 3.992-1.537 5.981 5.981 0 1 0 5.56-10.222 5.988 5.988 0 1 0-11.12 0 5.984 5.984 0 0 0 1.568 11.76zm2.661-5.987c0-.712.142-1.417.42-2.073a5.435 5.435 0 0 0 1.82 0 5.3 5.3 0 0 1-.91 5.581 5.294 5.294 0 0 1-1.33-3.508zm1.92-2.695a5.039 5.039 0 0 1-1.179 0c.17-.289.368-.561.59-.814.221.253.419.525.59.814zm-.12-1.283a5.255 5.255 0 0 1 4.112-1.311 5.335 5.335 0 0 1-3.296 2.463 6 6 0 0 0-.815-1.154v.002zM8.7 11.202a5.334 5.334 0 0 1-3.295-2.466 5.256 5.256 0 0 1 4.111 1.308A6.01 6.01 0 0 0 8.7 11.2v.002zm10.6 2.823a5.314 5.314 0 0 1-8.844 3.98 5.942 5.942 0 0 0 1.097-6.191 6.01 6.01 0 0 0 3.71-2.948 5.328 5.328 0 0 1 4.037 5.159zM9.986.719a5.322 5.322 0 0 1 4.902 7.395 5.856 5.856 0 0 0-4.902 1.46 5.857 5.857 0 0 0-4.902-1.46A5.323 5.323 0 0 1 9.986.72zM4.709 8.866a6.01 6.01 0 0 0 3.71 2.948 5.942 5.942 0 0 0 1.097 6.19 5.316 5.316 0 1 1-4.807-9.138z"/>
</svg>
