<svg xmlns="http://www.w3.org/2000/svg" width="20" height="20" viewBox="0 0 20 20">
    <g fill="#8F8D96" fill-rule="nonzero">
        <path d="M12.82 14.376a41.99 41.99 0 0 0-.64-.378c.05-.431.05-.868 0-1.299.216-.124.432-.251.64-.377a.841.841 0 0 0 .341-1.037l-.459-1.108a.841.841 0 0 0-.974-.492c-.237.059-.479.122-.72.186a5.58 5.58 0 0 0-.918-.918c.064-.241.127-.483.186-.72a.841.841 0 0 0-.492-.974l-1.108-.46a.841.841 0 0 0-1.037.342c-.126.21-.253.425-.378.64a5.58 5.58 0 0 0-1.298 0 41.459 41.459 0 0 0-.377-.64.842.842 0 0 0-1.038-.341l-1.108.459a.842.842 0 0 0-.492.974c.06.237.122.48.186.72-.34.269-.649.577-.918.918a41.356 41.356 0 0 0-.72-.186.841.841 0 0 0-.974.492l-.459 1.108a.842.842 0 0 0 .34 1.037c.21.126.426.253.641.378-.05.431-.05.867 0 1.298-.216.125-.431.252-.64.378a.842.842 0 0 0-.341 1.037l.459 1.108c.157.38.576.591.974.492.237-.059.479-.121.72-.186.269.34.577.649.918.918-.064.241-.127.483-.186.72-.1.398.113.817.492.974l1.108.46a.841.841 0 0 0 1.037-.34c.126-.21.252-.425.378-.642.431.05.868.05 1.299 0 .124.215.25.43.377.64a.842.842 0 0 0 1.037.341l1.108-.459a.842.842 0 0 0 .492-.974 42.006 42.006 0 0 0-.186-.72c.34-.269.65-.577.918-.918.241.064.483.127.72.186.398.1.817-.112.974-.492l.46-1.108a.842.842 0 0 0-.342-1.037zm-.925 1.758c-.227-.057-.46-.117-.69-.18a.835.835 0 0 0-.878.293c-.237.305-.512.58-.817.818a.834.834 0 0 0-.292.877c.062.232.122.464.179.69l-1.018.422a40.39 40.39 0 0 1-.361-.615.835.835 0 0 0-.827-.414 4.69 4.69 0 0 1-1.157 0 .834.834 0 0 0-.827.414c-.12.208-.242.415-.361.615l-1.019-.422c.057-.227.117-.459.18-.69a.835.835 0 0 0-.293-.878 4.685 4.685 0 0 1-.818-.817.834.834 0 0 0-.877-.292c-.231.062-.463.122-.69.179l-.422-1.018c.201-.121.408-.242.615-.361a.834.834 0 0 0 .414-.828 4.69 4.69 0 0 1 0-1.156.835.835 0 0 0-.414-.827 40.38 40.38 0 0 1-.615-.362l.422-1.018c.227.057.459.117.69.18a.835.835 0 0 0 .878-.293c.238-.306.513-.58.817-.818a.834.834 0 0 0 .292-.878c-.062-.23-.122-.462-.179-.69l1.018-.421c.12.2.242.407.361.614a.834.834 0 0 0 .828.414 4.681 4.681 0 0 1 1.156 0c.334.042.659-.12.827-.413.12-.207.24-.414.362-.615l1.018.422c-.057.227-.117.459-.18.69a.835.835 0 0 0 .293.878c.305.237.58.512.818.817.206.265.55.38.877.292.231-.062.463-.122.69-.18l.422 1.02c-.2.12-.407.24-.615.36a.834.834 0 0 0-.414.827c.048.383.048.772 0 1.157a.835.835 0 0 0 .414.827c.207.12.413.24.615.361l-.422 1.019z"/>
        <path d="M9.425 12.184a3.048 3.048 0 0 0-3.978-1.648 3.049 3.049 0 0 0-1.648 3.978 3.025 3.025 0 0 0 1.648 1.648 3.041 3.041 0 0 0 2.33 0 3.049 3.049 0 0 0 1.648-3.978zm-1.99 3.153c-.53.22-1.115.22-1.646 0a2.154 2.154 0 0 1 .82-4.14c.845 0 1.648.5 1.991 1.329a2.154 2.154 0 0 1-1.165 2.81zM19.359 3.935a30.099 30.099 0 0 0-.472-.067 4.158 4.158 0 0 0-.32-.772c.097-.128.193-.256.286-.382a.712.712 0 0 0-.07-.92l-.615-.617a.712.712 0 0 0-.921-.07c-.127.094-.254.19-.382.288a4.158 4.158 0 0 0-.772-.32c-.022-.16-.044-.319-.067-.473a.712.712 0 0 0-.7-.602h-.872a.712.712 0 0 0-.7.602c-.023.154-.046.313-.067.472-.267.08-.527.188-.773.32a29.532 29.532 0 0 0-.38-.286.712.712 0 0 0-.922.07l-.616.615a.712.712 0 0 0-.07.921c.093.126.19.254.287.382-.132.246-.24.505-.32.772-.16.022-.318.044-.472.067a.712.712 0 0 0-.602.7v.872c0 .348.258.649.602.7.154.023.312.046.472.067.08.267.188.527.32.773a30.77 30.77 0 0 0-.287.38.712.712 0 0 0 .07.922l.616.616a.712.712 0 0 0 .921.07c.126-.094.254-.19.381-.287.247.132.506.24.773.32.021.16.044.318.067.472a.712.712 0 0 0 .7.602h.872a.712.712 0 0 0 .7-.602c.023-.154.045-.313.067-.472.267-.08.526-.188.772-.32.127.097.255.193.381.286.28.207.676.177.921-.069l.617-.616a.712.712 0 0 0 .07-.921c-.094-.126-.19-.254-.288-.381.133-.246.24-.506.32-.773.16-.021.319-.044.473-.067a.712.712 0 0 0 .602-.7v-.872a.712.712 0 0 0-.602-.7zm-.247 1.45c-.14.021-.283.04-.426.06a.706.706 0 0 0-.591.512 3.304 3.304 0 0 1-.313.754.706.706 0 0 0 .056.78l.26.344-.445.444c-.114-.085-.229-.172-.343-.26a.706.706 0 0 0-.781-.055c-.237.135-.49.24-.753.312a.706.706 0 0 0-.513.591c-.019.144-.038.287-.059.427h-.629c-.02-.14-.04-.283-.058-.427a.706.706 0 0 0-.513-.59 3.304 3.304 0 0 1-.753-.313.706.706 0 0 0-.781.055l-.344.26-.444-.444c.085-.114.172-.23.26-.344a.706.706 0 0 0 .055-.78 3.305 3.305 0 0 1-.312-.754.706.706 0 0 0-.591-.513 29.213 29.213 0 0 1-.427-.058v-.63c.14-.02.283-.04.427-.058a.706.706 0 0 0 .59-.513c.073-.262.178-.516.313-.753a.706.706 0 0 0-.055-.781l-.26-.343.444-.445c.114.085.23.173.343.26a.706.706 0 0 0 .782.056c.237-.135.49-.24.753-.313a.706.706 0 0 0 .513-.59c.018-.144.038-.287.058-.427h.63c.02.14.04.283.058.426a.706.706 0 0 0 .513.591c.262.073.516.178.753.313.248.14.554.119.781-.056l.343-.26.445.445c-.085.114-.172.229-.26.343a.706.706 0 0 0-.056.78c.135.238.24.492.313.754a.706.706 0 0 0 .59.513l.427.059v.629z"/>
        <path d="M14.89 3.262c-.998 0-1.81.812-1.81 1.81 0 .997.812 1.808 1.81 1.808.997 0 1.809-.811 1.809-1.809 0-.997-.812-1.809-1.81-1.809zm0 2.814a1.006 1.006 0 0 1 0-2.01 1.006 1.006 0 0 1 0 2.01z"/>
    </g>
</svg>
