<svg xmlns="http://www.w3.org/2000/svg" width="16" height="16" viewBox="0 0 16 16">
    <g fill="#614AE2" fill-rule="nonzero">
        <path d="M9.49 0a6.494 6.494 0 0 0-5.055 10.568l-4.232 4.23a.694.694 0 0 0 .98.982l4.232-4.232A6.494 6.494 0 1 0 9.49 0zm0 11.99a5.5 5.5 0 0 1-5.495-5.496A5.5 5.5 0 0 1 9.49 1a5.5 5.5 0 0 1 5.495 5.494A5.5 5.5 0 0 1 9.49 11.99z"/>
        <path d="M12.487 5.995H9.99V3.497a.5.5 0 0 0-1 0v2.498H6.494a.5.5 0 0 0 0 .999h2.498v2.498a.5.5 0 0 0 .999 0V6.994h2.497a.5.5 0 0 0 0-1z"/>
    </g>
</svg>
